<svg width="35" height="33" viewBox="0 0 35 33" fill="none" xmlns="http://www.w3.org/2000/svg">
<path d="M22.9024 20.6514C17.6525 25.5585 15.9847 21.7442 15.9847 21.7442C15.9847 21.7442 15.0311 19.6478 17.5311 19.7907C17.5846 19.7943 17.6382 19.7978 17.6953 19.8014C21.5096 19.2621 23.0953 17.88 24.081 16.405C24.3417 16.0193 24.5595 15.6265 24.7631 15.2408C25.3809 14.0872 25.6631 12.3194 25.4774 10.0623C25.4381 9.58371 25.2702 8.75872 24.8702 7.84088C23.906 6.25876 22.3453 5.03735 20.4524 4.50878C19.7239 4.23021 18.9489 4.03736 18.1346 3.94808C14.474 3.54808 11.0954 5.36234 9.39547 8.29801C9.28119 8.49444 9.17405 8.69443 9.07762 8.90157C9.04905 8.93014 9.01691 8.95872 8.98476 8.98372C8.74191 9.18371 8.42049 9.28728 8.08121 9.248C7.92049 9.23014 7.77407 9.18371 7.64193 9.11586C7.2955 8.93372 7.05265 8.59086 7.00979 8.20158C7.05622 7.95516 7.10979 7.71231 7.17051 7.47302C8.40977 2.79095 12.974 -0.419716 18.0489 0.0445632C22.6917 0.333845 26.4524 3.85522 27.1273 8.38372C27.4345 9.8337 28.3916 15.5193 22.9024 20.6514ZM17.0989 12.3729C23.8203 14.9158 21.1346 18.0943 21.1346 18.0943C21.1346 18.0943 19.6739 19.8764 18.6989 17.5729C18.6775 17.5229 18.6596 17.4729 18.6382 17.4193C16.4704 14.2336 14.5275 13.4229 12.7668 13.1872C12.3061 13.1265 11.8561 13.1051 11.4204 13.0908C10.1133 13.0479 8.39906 13.5729 6.4598 14.7372C6.04552 14.9836 5.38125 15.4979 4.73483 16.2622C3.73841 17.8264 3.33485 19.7657 3.69556 21.6978C3.76341 22.4728 3.93484 23.2549 4.21341 24.0228C5.47767 27.4834 8.59905 29.7155 11.9776 29.9441C12.2026 29.9584 12.4311 29.9655 12.6597 29.962C12.699 29.9763 12.7383 29.9905 12.774 30.0084C13.0597 30.137 13.2954 30.3798 13.4097 30.7012C13.4668 30.8512 13.4883 31.0048 13.4847 31.1548C13.474 31.5477 13.274 31.9155 12.9418 32.1262C12.699 32.1941 12.4597 32.2548 12.2169 32.3048C7.47407 33.2584 2.57415 30.5798 0.752744 25.8227C-1.03651 21.53 0.459892 16.5979 4.22412 13.9944C5.39196 13.0837 10.0705 9.71585 17.0989 12.3729ZM12.8026 22.1299C11.2097 15.1229 15.3454 15.605 15.3454 15.605C15.3454 15.605 17.6382 15.8372 16.2525 17.9264C16.2239 17.9693 16.1918 18.0157 16.1597 18.0622C14.7025 21.63 15.0954 23.6978 15.8739 25.2942C16.0775 25.712 16.3061 26.0977 16.5347 26.4692C17.2204 27.5834 18.606 28.7191 20.6489 29.6977C21.0846 29.9048 21.8774 30.1763 22.8738 30.2941C24.7274 30.2584 26.5666 29.5263 27.9773 28.1584C28.588 27.6727 29.1452 27.0977 29.6309 26.4406C31.8201 23.4764 31.9559 19.6443 30.2809 16.6979C30.1666 16.5015 30.0487 16.3086 29.9202 16.1193C29.9095 16.08 29.8987 16.0408 29.8916 15.9979C29.8452 15.6908 29.9166 15.3586 30.1202 15.0836C30.213 14.9551 30.3309 14.8515 30.4559 14.7693C30.788 14.5622 31.2094 14.5265 31.5666 14.6836C31.7559 14.8479 31.938 15.0158 32.113 15.1908C35.5308 18.6193 36.0058 24.1835 33.0451 28.3299C30.4523 32.1941 25.5167 33.6691 21.2667 31.9655C19.8596 31.5012 14.4668 29.4584 12.8026 22.1299Z" fill="white"/>
</svg>
